<svg width="19" height="16" viewBox="0 0 19 16" fill="none" xmlns="http://www.w3.org/2000/svg">
<path d="M17.047 3.98749C17.0591 4.16248 17.0591 4.33751 17.0591 4.5125C17.0591 9.84997 13.1409 16 5.97972 16C3.77348 16 1.724 15.3375 0 14.1875C0.313464 14.225 0.614831 14.2375 0.940355 14.2375C2.76076 14.2375 4.43655 13.6 5.77476 12.5125C4.06282 12.475 2.62817 11.3125 2.13387 9.7125C2.37501 9.74997 2.61611 9.77498 2.86931 9.77498C3.21892 9.77498 3.56856 9.72496 3.89405 9.63751C2.10979 9.26247 0.771544 7.63749 0.771544 5.67499V5.62501C1.28993 5.92501 1.89277 6.11251 2.53169 6.13748C1.48282 5.41247 0.795665 4.17498 0.795665 2.77497C0.795665 2.02499 0.988523 1.33749 1.32611 0.737481C3.243 3.18748 6.12437 4.78745 9.35531 4.96248C9.29504 4.66248 9.25886 4.35001 9.25886 4.03751C9.25886 1.81248 10.9949 0 13.1529 0C14.2741 0 15.2868 0.487499 15.9981 1.275C16.8782 1.10001 17.7221 0.762491 18.4696 0.300002C18.1802 1.23752 17.5653 2.02502 16.7576 2.52499C17.5413 2.43753 18.3008 2.21248 19 1.90001C18.4696 2.69998 17.8065 3.41245 17.047 3.98749Z" fill="black"/>
</svg>
