<svg id="Capa_1" enable-background="new 0 0 512 512" height="512" viewBox="0 0 512 512" width="512" xmlns="http://www.w3.org/2000/svg" xmlns:xlink="http://www.w3.org/1999/xlink"><linearGradient id="SVGID_1_" gradientUnits="userSpaceOnUse" x1="256" x2="256" y1="481" y2="31"><stop offset="0" stop-color="#a93aff"/><stop offset="1" stop-color="#ff81ff"/></linearGradient><g><g><g><path d="m482.487 430.274c19.126-23.846 29.513-53.263 29.513-84.274 0-69.369-52.594-126.676-120-134.162v-105.838c0-41.355-33.645-75-75-75h-242c-41.355 0-75 33.645-75 75v180c0 41.355 33.645 75 75 75h16v45c0 6.067 3.655 11.537 9.26 13.858 5.605 2.322 12.057 1.038 16.347-3.251l55.606-55.607h70.624c7.486 67.405 64.793 120 134.162 120h120c6.067 0 11.536-3.655 13.858-9.26 2.321-5.605 1.038-12.057-3.252-16.347zm-316.487-99.274c-3.978 0-7.793 1.58-10.606 4.393l-34.394 34.394v-23.787c0-8.284-6.716-15-15-15h-31c-24.813 0-45-20.187-45-45v-180c0-24.813 20.187-45 45-45h242c24.813 0 45 20.187 45 45v180c0 24.813-20.187 45-45 45zm285.246 110.46 9.54 9.54h-83.786c-52.805 0-96.623-39.183-103.924-90h43.924c41.355 0 75-33.645 75-75v-43.924c50.817 7.301 90 51.119 90 103.924 0 28.047-10.922 54.415-30.754 74.246-2.813 2.813-4.394 6.628-4.394 10.607s1.581 7.794 4.394 10.607zm-218.035-314.46c-14.488 0-27.235 5.894-37.211 17.125-9.977-11.231-22.723-17.125-37.211-17.125-29.277 0-52.211 24.332-52.211 55.394 0 32.606 25.351 54.002 60.437 83.616 6.122 5.167 12.452 10.51 19.162 16.325 2.819 2.443 6.321 3.665 9.824 3.665s7.005-1.221 9.824-3.665c6.71-5.816 13.041-11.159 19.163-16.326 32.535-27.459 60.436-49.813 60.436-83.615-.001-31.062-22.935-55.394-52.213-55.394zm-27.574 116.084c-3.147 2.656-6.349 5.359-9.637 8.154-3.288-2.795-6.489-5.497-9.636-8.153-33.624-28.38-49.787-42.815-49.787-60.691 0-12.619 7.629-25.394 22.211-25.394 16.107 0 22.335 19.851 22.767 21.296 1.744 6.573 7.641 11.153 14.445 11.153s12.701-4.579 14.445-11.153c.431-1.445 6.659-21.296 22.767-21.296 14.582 0 22.211 12.775 22.211 25.394 0 18.629-18.913 34.633-49.786 60.69z" fill="url(#SVGID_1_)"/></g></g></g></svg>