<?xml version="1.0"?>
<svg xmlns="http://www.w3.org/2000/svg" id="Capa_1" enable-background="new 0 0 512 512" height="512px" viewBox="0 0 512 512" width="512px"><g><path d="m511.796 374.534-23.037-138.22c-3.397-20.387-15.915-37.142-32.979-46.424 10.084-11.454 16.22-26.465 16.22-42.89 0-35.841-29.159-65-65-65s-65 29.159-65 65c0 16.425 6.136 31.436 16.221 42.891-17.065 9.281-29.583 26.037-32.979 46.424l-23.037 138.22c-.725 4.349.501 8.797 3.351 12.161s7.035 5.304 11.444 5.304h26.198l8.854 106.246c.647 7.775 7.146 13.754 14.948 13.754h80c7.802 0 14.301-5.979 14.948-13.754l8.854-106.246h26.198c4.409 0 8.596-1.94 11.445-5.305s4.076-7.812 3.351-12.161zm-104.796-262.534c19.299 0 35 15.701 35 35s-15.701 35-35 35-35-15.701-35-35 15.701-35 35-35zm50 250c-7.802 0-14.301 5.979-14.948 13.754l-8.854 106.246h-52.396l-8.854-106.246c-.647-7.775-7.146-13.754-14.948-13.754h-22.293l20.126-120.754c2.824-16.946 17.343-29.246 34.523-29.246h35.287c17.181 0 31.699 12.3 34.523 29.246l20.127 120.754z" fill="#643088"/><path d="m186.759 236.314c-3.397-20.387-15.915-37.142-32.979-46.424 10.084-11.454 16.22-26.465 16.22-42.89 0-35.841-29.159-65-65-65s-65 29.159-65 65c0 16.425 6.136 31.436 16.221 42.891-17.065 9.281-29.583 26.037-32.979 46.424l-23.038 138.219c-.725 4.349.501 8.797 3.351 12.161s7.036 5.305 11.445 5.305h26.198l8.854 106.246c.647 7.775 7.146 13.754 14.948 13.754h80c7.802 0 14.301-5.979 14.948-13.754l8.854-106.246h26.198c4.409 0 8.596-1.94 11.445-5.305s4.075-7.812 3.351-12.161zm-81.759-124.314c19.299 0 35 15.701 35 35s-15.701 35-35 35-35-15.701-35-35 15.701-35 35-35zm50 250c-7.802 0-14.301 5.979-14.948 13.754l-8.854 106.246h-52.396l-8.854-106.246c-.647-7.775-7.146-13.754-14.948-13.754h-22.293l20.126-120.754c2.824-16.946 17.343-29.246 34.523-29.246h35.287c17.181 0 31.699 12.3 34.523 29.246l20.127 120.754z" fill="#643088"/><path d="m327.253 16.293c-10.507-10.507-24.476-16.293-39.334-16.293-11.588 0-22.635 3.519-31.919 10.052-9.285-6.532-20.332-10.052-31.919-10.052-14.858 0-28.827 5.786-39.334 16.293-21.688 21.688-21.688 56.979 0 78.667l60.646 60.646c2.929 2.929 6.768 4.394 10.607 4.394s7.678-1.465 10.606-4.394l60.646-60.646c21.689-21.689 21.689-56.979.001-78.667zm-21.213 57.454-50.04 50.04-50.04-50.04c-9.991-9.992-9.991-26.249 0-36.241 4.841-4.84 11.276-7.506 18.121-7.506s13.279 2.665 18.121 7.508l3.192 3.191c5.859 5.855 15.352 5.855 21.211 0l3.194-3.193c4.841-4.841 11.275-7.506 18.12-7.506s13.28 2.666 18.121 7.506c9.991 9.992 9.991 26.249 0 36.241z" fill="#643088"/></g></svg>
