<svg width="56" height="50" viewBox="0 0 56 50" fill="none" xmlns="http://www.w3.org/2000/svg">
<path d="M50.2282 6.02956C48.9513 4.75207 47.4353 3.73868 45.7666 3.04727C44.098 2.35587 42.3095 2 40.5032 2C38.697 2 36.9085 2.35587 35.2398 3.04727C33.5712 3.73868 32.0551 4.75207 30.7782 6.02956L28.1282 8.67956L25.4782 6.02956C22.899 3.45033 19.4008 2.00134 15.7532 2.00134C12.1056 2.00134 8.60746 3.45033 6.02823 6.02956C3.449 8.60879 2 12.107 2 15.7546C2 19.4021 3.449 22.9003 6.02823 25.4796L8.67823 28.1296L28.1282 47.5796L47.5782 28.1296L50.2282 25.4796C51.5057 24.2027 52.5191 22.6866 53.2105 21.0179C53.9019 19.3493 54.2578 17.5608 54.2578 15.7546C54.2578 13.9483 53.9019 12.1598 53.2105 10.4912C52.5191 8.82253 51.5057 7.30645 50.2282 6.02956V6.02956Z" stroke="#FF00A8" stroke-width="3" stroke-linecap="round" stroke-linejoin="round"/>
</svg>
