<svg width="16" height="16" viewBox="0 0 16 16" fill="none" xmlns="http://www.w3.org/2000/svg">
<path d="M1 12.6667V8C1 6.14348 1.7375 4.36301 3.05025 3.05025C4.36301 1.7375 6.14348 1 8 1C9.85652 1 11.637 1.7375 12.9497 3.05025C14.2625 4.36301 15 6.14348 15 8V12.6667" stroke="white" stroke-width="2" stroke-linecap="round" stroke-linejoin="round"/>
<path d="M15 13.4444C15 13.857 14.8361 14.2527 14.5444 14.5444C14.2527 14.8361 13.857 15 13.4444 15H12.6667C12.2541 15 11.8584 14.8361 11.5667 14.5444C11.275 14.2527 11.1111 13.857 11.1111 13.4444V11.1111C11.1111 10.6985 11.275 10.3029 11.5667 10.0112C11.8584 9.71943 12.2541 9.55554 12.6667 9.55554H15V13.4444ZM1 13.4444C1 13.857 1.16389 14.2527 1.45561 14.5444C1.74733 14.8361 2.143 15 2.55556 15H3.33333C3.74589 15 4.14155 14.8361 4.43328 14.5444C4.725 14.2527 4.88889 13.857 4.88889 13.4444V11.1111C4.88889 10.6985 4.725 10.3029 4.43328 10.0112C4.14155 9.71943 3.74589 9.55554 3.33333 9.55554H1V13.4444Z" stroke="white" stroke-width="2" stroke-linecap="round" stroke-linejoin="round"/>
</svg>
