<svg width="22" height="21" viewBox="0 0 22 21" fill="none" xmlns="http://www.w3.org/2000/svg">
<path d="M19.9375 10.5H16.5V7.5C16.5 5.84531 17.7332 4.5 19.25 4.5H19.5938C20.1652 4.5 20.625 3.99844 20.625 3.375V1.125C20.625 0.501562 20.1652 0 19.5938 0H19.25C15.4516 0 12.375 3.35625 12.375 7.5V18.75C12.375 19.9922 13.2988 21 14.4375 21H19.9375C21.0762 21 22 19.9922 22 18.75V12.75C22 11.5078 21.0762 10.5 19.9375 10.5ZM7.5625 10.5H4.125V7.5C4.125 5.84531 5.3582 4.5 6.875 4.5H7.21875C7.79023 4.5 8.25 3.99844 8.25 3.375V1.125C8.25 0.501562 7.79023 0 7.21875 0H6.875C3.07656 0 0 3.35625 0 7.5V18.75C0 19.9922 0.923828 21 2.0625 21H7.5625C8.70117 21 9.625 19.9922 9.625 18.75V12.75C9.625 11.5078 8.70117 10.5 7.5625 10.5Z" fill="black"/>
</svg>
