<svg width="22" height="14" viewBox="0 0 22 14" fill="none" xmlns="http://www.w3.org/2000/svg">
<path d="M13.2305 5.99725C13.2955 6.3506 13.3419 6.70396 13.3419 7.16231C13.3419 11.1637 10.7329 14 6.80556 14C3.04534 14 0 10.8677 0 7C0 3.13232 3.04534 0 6.80556 0C8.64391 0 10.1758 0.687568 11.3643 1.83356L9.51661 3.65757C9.01523 3.16097 8.13324 2.57844 6.80556 2.57844C4.48444 2.57844 2.59036 4.55525 2.59036 7C2.59036 9.44475 4.48444 11.4216 6.80556 11.4216C9.49804 11.4216 10.5101 9.42565 10.6679 8.40379H6.80556V5.99721H13.2305V5.99725ZM19.8023 6.23193V4.2H17.8173V6.23193H15.8418V8.27363H17.8173V10.3056H19.8023V8.27363H21.7778V6.23193H19.8023Z" fill="#263238"/>
</svg>
