<svg width="16" height="14" viewBox="0 0 16 14" fill="none" xmlns="http://www.w3.org/2000/svg">
<path d="M7.70172 3.41058C5.51669 3.41058 3.75423 5.01317 3.75423 7C3.75423 8.98683 5.51669 10.5894 7.70172 10.5894C9.88675 10.5894 11.6492 8.98683 11.6492 7C11.6492 5.01317 9.88675 3.41058 7.70172 3.41058ZM7.70172 9.33359C6.28969 9.33359 5.13534 8.28707 5.13534 7C5.13534 5.71293 6.28626 4.66641 7.70172 4.66641C9.11718 4.66641 10.2681 5.71293 10.2681 7C10.2681 8.28707 9.11374 9.33359 7.70172 9.33359ZM12.7314 3.26375C12.7314 3.72922 12.3191 4.10097 11.8107 4.10097C11.2988 4.10097 10.8899 3.7261 10.8899 3.26375C10.8899 2.80141 11.3022 2.42653 11.8107 2.42653C12.3191 2.42653 12.7314 2.80141 12.7314 3.26375ZM15.3459 4.11347C15.2875 2.99197 15.0058 1.99855 14.1022 1.18007C13.2021 0.361598 12.1096 0.105433 10.8762 0.0492023C9.60503 -0.0164008 5.79497 -0.0164008 4.5238 0.0492023C3.29387 0.102309 2.20135 0.358474 1.29779 1.17695C0.394233 1.99543 0.115951 2.98884 0.0541104 4.11034C-0.0180368 5.26621 -0.0180368 8.73067 0.0541104 9.88653C0.112515 11.008 0.394233 12.0015 1.29779 12.8199C2.20135 13.6384 3.29043 13.8946 4.5238 13.9508C5.79497 14.0164 9.60503 14.0164 10.8762 13.9508C12.1096 13.8977 13.2021 13.6415 14.1022 12.8199C15.0023 12.0015 15.2841 11.008 15.3459 9.88653C15.418 8.73067 15.418 5.26933 15.3459 4.11347ZM13.7037 11.1267C13.4357 11.739 12.9169 12.2108 12.2401 12.4575C11.2266 12.8231 8.82172 12.7387 7.70172 12.7387C6.58172 12.7387 4.17337 12.8199 3.16331 12.4575C2.48994 12.2139 1.97117 11.7422 1.69975 11.1267C1.29779 10.2052 1.39055 8.01841 1.39055 7C1.39055 5.98159 1.30123 3.7917 1.69975 2.87326C1.96773 2.26096 2.4865 1.78924 3.16331 1.54245C4.17681 1.17695 6.58172 1.2613 7.70172 1.2613C8.82172 1.2613 11.2301 1.18007 12.2401 1.54245C12.9135 1.78612 13.4323 2.25784 13.7037 2.87326C14.1056 3.79482 14.0129 5.98159 14.0129 7C14.0129 8.01841 14.1056 10.2083 13.7037 11.1267Z" fill="#263238"/>
</svg>
