<svg width="24" height="24" viewBox="0 0 24 24" fill="none" xmlns="http://www.w3.org/2000/svg">
<path d="M22.9557 17.4712V20.7831C22.957 21.0906 22.894 21.3949 22.7708 21.6766C22.6477 21.9583 22.467 22.2112 22.2405 22.419C22.0139 22.6269 21.7464 22.7851 21.4552 22.8836C21.1639 22.9821 20.8553 23.0187 20.5491 22.991C17.152 22.6219 13.8889 21.4611 11.0219 19.6019C8.35454 17.9069 6.09308 15.6455 4.39813 12.9781C2.5324 10.0981 1.37133 6.81909 1.00896 3.40675C0.981373 3.10146 1.01765 2.79378 1.11549 2.50329C1.21333 2.2128 1.37059 1.94586 1.57724 1.71947C1.7839 1.49308 2.03543 1.31221 2.31582 1.18836C2.59621 1.06451 2.89932 1.0004 3.20585 1.00011H6.51773C7.05349 0.994834 7.57289 1.18456 7.97912 1.53391C8.38534 1.88326 8.65067 2.36841 8.72566 2.89892C8.86544 3.9588 9.12469 4.99946 9.49843 6.00106C9.64696 6.39619 9.67911 6.82562 9.59106 7.23847C9.50301 7.65131 9.29846 8.03026 9.00165 8.33042L7.59962 9.73245C9.17117 12.4963 11.4596 14.7847 14.2234 16.3562L15.6254 14.9542C15.9256 14.6574 16.3045 14.4528 16.7174 14.3648C17.1302 14.2767 17.5596 14.3089 17.9548 14.4574C18.9564 14.8312 19.997 15.0904 21.0569 15.2302C21.5932 15.3058 22.0829 15.576 22.433 15.9892C22.7831 16.4024 22.9692 16.9298 22.9557 17.4712Z" stroke="#C4C4C4" stroke-width="2" stroke-linecap="round" stroke-linejoin="round"/>
</svg>
