<svg width="30" height="30" viewBox="0 0 30 30" fill="none" xmlns="http://www.w3.org/2000/svg">
<path d="M30 15C30 23.2863 23.2863 30 15 30C13.4516 30 11.9637 29.7641 10.5605 29.3286C11.1714 28.3306 12.0847 26.6976 12.4234 25.3972C12.6048 24.6956 13.3548 21.8286 13.3548 21.8286C13.8448 22.7601 15.2722 23.5524 16.7903 23.5524C21.3145 23.5524 24.5746 19.3911 24.5746 14.2198C24.5746 9.26613 20.5282 5.55847 15.3266 5.55847C8.85484 5.55847 5.41331 9.90121 5.41331 14.6371C5.41331 16.8387 6.58669 19.5786 8.45565 20.4496C8.73992 20.5827 8.89113 20.5222 8.95766 20.25C9.00605 20.0444 9.26008 19.0222 9.375 18.5504C9.41129 18.3992 9.39314 18.2661 9.27218 18.121C8.66129 17.3649 8.16532 15.9859 8.16532 14.6976C8.16532 11.3891 10.6694 8.18952 14.9395 8.18952C18.623 8.18952 21.2056 10.6996 21.2056 14.2923C21.2056 18.3508 19.1552 21.1633 16.4879 21.1633C15.0181 21.1633 13.9113 19.9476 14.2681 18.4536C14.6915 16.6694 15.5081 14.746 15.5081 13.4577C15.5081 12.3085 14.8911 11.3468 13.6089 11.3468C12.1028 11.3468 10.8931 12.9012 10.8931 14.9879C10.8931 16.3185 11.3407 17.2137 11.3407 17.2137C11.3407 17.2137 9.85887 23.4919 9.58669 24.6653C9.28427 25.9597 9.40524 27.7863 9.53226 28.9718C3.95565 26.7883 0 21.3569 0 15C0 6.71371 6.71371 0 15 0C23.2863 0 30 6.71371 30 15Z" fill="white"/>
</svg>
