<svg id="Capa_1" enable-background="new 0 0 512.008 512.008" height="512" viewBox="0 0 512.008 512.008" width="512" xmlns="http://www.w3.org/2000/svg"><g><g><g fill="#efedef"><path d="m248.638 95.063c-18.129-23.928-43.053-41.007-71.415-49.251l16.134-10.787c3.443-2.302 4.368-6.96 2.065-10.403-2.302-3.444-6.961-4.368-10.403-2.065l-30.697 20.523c-3.209 2.089-4.482 6.977-2.066 10.402l20.522 30.696c2.322 3.474 6.998 4.344 10.403 2.067 3.444-2.303 4.369-6.96 2.067-10.403l-10.005-14.964c24.359 7.583 45.75 22.539 61.437 43.244 19.471 25.698 28.031 57.48 24.106 89.49-5.164 42.105-31.145 78.149-69.497 96.418-3.739 1.782-5.327 6.257-3.546 9.997 1.803 3.785 6.326 5.295 9.997 3.546 43.008-20.487 72.143-60.911 77.935-108.135 4.404-35.903-5.199-71.55-27.037-100.375z"/><path d="m160.446 303.387-24.828-27.332c-2.786-3.065-7.529-3.291-10.595-.509-3.066 2.785-3.294 7.528-.509 10.595l14.361 15.809c-5.173.015-10.36-.292-15.524-.925-32.701-4.01-61.884-20.515-82.172-46.474-20.287-25.959-29.252-58.265-25.241-90.966 3.268-26.645 14.782-50.941 33.3-70.264 17.913-18.69 41.728-31.515 67.057-36.111 4.076-.74 6.78-4.644 6.041-8.719-.74-4.076-4.651-6.783-8.719-6.041-28.416 5.157-55.125 19.537-75.208 40.492-20.776 21.679-33.694 48.933-37.359 78.817-4.498 36.679 5.557 72.913 28.312 102.028 22.755 29.116 55.486 47.628 92.164 52.126 4.292.526 8.597.851 12.9.978l-11.906 10.815c-3.066 2.785-3.294 7.528-.509 10.595 2.792 3.074 7.537 3.287 10.595.509l27.332-24.828c2.641-2.689 3.506-7.479.508-10.595z"/></g><path d="m135.623 242.929c1.776.686 3.717.675 5.486-.032 16.631-6.645 49.704-29.341 65.044-51.596 13.592-19.719 11.582-46.899-4.784-64.126-16.179-17.03-41.581-17.852-57.745-2.375-2.97 2.843-7.543 2.842-10.512-.001-16.157-15.473-41.548-14.672-57.745 2.377-16.366 17.227-18.377 44.408-4.784 64.126 16.266 23.596 48.414 45.209 65.04 51.627z" fill="#ff4f6b"/><g><path d="m201.369 127.175c-12.448-13.103-30.353-16.6-45.313-10.471 5.556 2.226 10.794 5.715 15.313 10.471 16.366 17.227 18.377 44.408 4.784 64.126-12.181 17.67-35.534 35.61-52.966 45.582 4.646 2.618 8.895 4.679 12.436 6.046 1.776.686 3.718.675 5.486-.032 16.631-6.645 49.704-29.341 65.044-51.596 13.593-19.718 11.582-46.899-4.784-64.126z" fill="#fb2b3a"/></g></g><g><g><g><g><g><path d="m474.508 433.057h-144.6c-.19.03-7.33 1.89-10.58 3.23l-126.84 52.17c-8.06 3.32-17.15 2.97-24.93-.96l-150.18-75.77c-6.05-3.06-9.87-9.26-9.87-16.04 0-10.16 8.31-17.97 17.93-17.97 1.45 0 2.93.18 4.41.55l117.78 28.54 253.183-69.668z" fill="#ffcebf"/><path d="m329.908 408.139c-.19.03-7.33 1.89-10.58 3.23l-126.84 52.17c-8.06 3.32-17.15 2.97-24.93-.96l-150.18-75.77c-1.831-.926-3.453-2.143-4.831-3.573-3.089 3.196-5.039 7.543-5.039 12.451 0 6.78 3.82 12.98 9.87 16.04l150.18 75.771c7.78 3.93 16.87 4.28 24.93.96l126.84-52.17c3.25-1.34 10.39-3.2 10.58-3.23h144.6l-19.146-24.918h-125.454z" fill="#ffb09e"/><path d="m262.138 338.787-107.57 73.19c-7.87 4.776-10.585 15.375-5.19 23.05 5.09 7.241 15.248 9.758 23.65 6 0 0 47.524-14.234 69.317-20.762 5.649-1.692 9.775-6.535 10.557-12.38z" fill="#ffb09e"/><path d="m474.508 318.327h-83.364c-4.414 0-8.818-.42-13.153-1.253l-43.183-8.307c-25.25-4.85-51.4.55-72.67 15.02l-107.57 73.19c-7.87 4.776-10.585 15.375-5.19 23.05 5.09 7.241 15.248 9.758 23.65 6l46.45-13.91c10.72-3.21 21.43-6.42 32.14-9.63z" fill="#ffcebf"/></g></g><path d="m502.008 307.03h-107.593c-11.046 0-20 8.954-20 20v102.554c0 11.046 8.954 20 20 20h107.593c5.523 0 10-4.477 10-10v-122.554c0-5.523-4.477-10-10-10z" fill="#cfabf2"/><circle cx="410.322" cy="338.347" fill="#00516a" r="7.5"/></g></g></g></g></svg>