<svg width="22" height="21" viewBox="0 0 22 21" fill="none" xmlns="http://www.w3.org/2000/svg">
<path d="M19.9375 0H14.4375C13.2988 0 12.375 1.00781 12.375 2.25V8.25C12.375 9.49219 13.2988 10.5 14.4375 10.5H17.875V13.5C17.875 15.1547 16.6418 16.5 15.125 16.5H14.7812C14.2098 16.5 13.75 17.0016 13.75 17.625V19.875C13.75 20.4984 14.2098 21 14.7812 21H15.125C18.9234 21 22 17.6437 22 13.5V2.25C22 1.00781 21.0762 0 19.9375 0ZM7.5625 0H2.0625C0.923828 0 0 1.00781 0 2.25V8.25C0 9.49219 0.923828 10.5 2.0625 10.5H5.5V13.5C5.5 15.1547 4.2668 16.5 2.75 16.5H2.40625C1.83477 16.5 1.375 17.0016 1.375 17.625V19.875C1.375 20.4984 1.83477 21 2.40625 21H2.75C6.54844 21 9.625 17.6437 9.625 13.5V2.25C9.625 1.00781 8.70117 0 7.5625 0Z" fill="black"/>
</svg>
