<svg width="23" height="20" viewBox="0 0 23 20" fill="none" xmlns="http://www.w3.org/2000/svg">
<path d="M20.1421 11.6595L20.1421 11.6595C20.0969 11.8586 19.9198 12 19.7155 12H8.26453H7.65191L7.77467 12.6002L8.03034 13.8502L8.11211 14.25H8.5202H19.0053C19.286 14.25 19.4941 14.5107 19.4319 14.7845L19.2164 15.7327L19.1284 16.12L19.4856 16.2934C20.0501 16.5674 20.4375 17.1452 20.4375 17.8125C20.4375 18.7445 19.682 19.5 18.75 19.5C17.818 19.5 17.0625 18.7445 17.0625 17.8125C17.0625 17.3403 17.2561 16.9143 17.5696 16.6072L18.4445 15.75H17.2196H9.03031H7.80537L8.68043 16.6072C8.99392 16.9143 9.1875 17.3403 9.1875 17.8125C9.1875 18.7445 8.43198 19.5 7.5 19.5C6.56802 19.5 5.8125 18.7445 5.8125 17.8125C5.8125 17.1873 6.15265 16.641 6.66063 16.3489L6.97357 16.1689L6.90122 15.8152L4.15716 2.3998L4.07538 2H3.6673H0.9375C0.695869 2 0.5 1.80413 0.5 1.5625V0.9375C0.5 0.695869 0.695869 0.5 0.9375 0.5H4.94254C5.15039 0.5 5.32953 0.646237 5.37115 0.849783L5.37116 0.849811L5.72921 2.6002L5.81099 3H6.21906H21.5621C21.8428 3 22.0509 3.26069 21.9887 3.53446L20.1421 11.6595Z" stroke="#555555"/>
</svg>
