<svg width="34" height="30" viewBox="0 0 34 30" fill="none" xmlns="http://www.w3.org/2000/svg">
<path d="M30.3789 7.47654C30.4004 7.80464 30.4004 8.13283 30.4004 8.46093C30.4004 18.4687 23.418 30 10.6563 30C6.7246 30 3.07228 28.7578 0 26.6016C0.558614 26.6719 1.09567 26.6953 1.67578 26.6953C4.91987 26.6953 7.90624 25.5 10.291 23.461C7.24023 23.3906 4.68358 21.211 3.8027 18.2109C4.23243 18.2812 4.66209 18.3281 5.1133 18.3281C5.73633 18.3281 6.35942 18.2343 6.93946 18.0703C3.75978 17.3671 1.37494 14.3203 1.37494 10.6406V10.5469C2.29874 11.1094 3.37305 11.461 4.51164 11.5078C2.64249 10.1484 1.41793 7.82809 1.41793 5.20307C1.41793 3.79685 1.76162 2.50779 2.36322 1.38278C5.77925 5.97652 10.914 8.97647 16.6718 9.30466C16.5644 8.74215 16.4999 8.15627 16.4999 7.57032C16.4999 3.3984 19.5937 0 23.4394 0C25.4374 0 27.2421 0.91406 28.5097 2.39062C30.078 2.06252 31.5819 1.42967 32.914 0.562504C32.3983 2.32036 31.3026 3.79692 29.8632 4.73435C31.2597 4.57037 32.6132 4.1484 33.8593 3.56253C32.9141 5.06246 31.7324 6.39835 30.3789 7.47654Z" fill="white"/>
</svg>
